<svg width="37" height="37" viewBox="0 0 37 37" fill="none" xmlns="http://www.w3.org/2000/svg">
<circle cx="18.5" cy="18.5" r="18.5" fill="url(#paint0_linear_34_11)"/>
<path d="M17.0909 6.9837C17.4474 6.20585 18.5526 6.20585 18.9091 6.9837L21.5968 12.8486C21.7366 13.1535 22.0199 13.3681 22.3513 13.4199L28.4773 14.3786C29.2744 14.5033 29.6032 15.4721 29.0467 16.0563L24.5232 20.8048C24.3081 21.0306 24.2107 21.3438 24.2597 21.6518L25.3146 28.2758C25.4464 29.1031 24.5634 29.716 23.8344 29.3033L18.4927 26.2789C18.187 26.1059 17.813 26.1059 17.5073 26.2789L12.1656 29.3033C11.4366 29.716 10.5536 29.1031 10.6854 28.2758L11.7403 21.6518C11.7893 21.3438 11.6919 21.0306 11.4768 20.8048L6.95327 16.0563C6.39677 15.4721 6.7256 14.5033 7.52272 14.3786L13.6487 13.4199C13.9801 13.3681 14.2634 13.1535 14.4032 12.8486L17.0909 6.9837Z" fill="white"/>
<defs>
<linearGradient id="paint0_linear_34_11" x1="18.5" y1="0" x2="18.5" y2="37" gradientUnits="userSpaceOnUse">
<stop stop-color="#719FDD"/>
<stop offset="1" stop-color="#7BB0F7"/>
</linearGradient>
</defs>
</svg>
