<svg width="215" height="45" viewBox="0 0 215 45" fill="none" xmlns="http://www.w3.org/2000/svg">
<path d="M62.1006 25.877C62.1006 27.4785 61.9346 28.8506 61.6025 29.9932C61.2803 31.1357 60.8311 32.1074 60.2549 32.9082C59.6885 33.709 59.0391 34.3926 58.3066 34.959C57.584 35.5352 56.8223 36.0576 56.0215 36.5264C55.6895 36.7119 55.4258 36.6484 55.2305 36.3359L53.5898 33.7139C53.375 33.3623 53.4482 33.0791 53.8096 32.8643C54.4443 32.4932 55.0303 32.0342 55.5674 31.4873C56.1045 30.9307 56.5391 30.208 56.8711 29.3193C57.2031 28.4209 57.3691 27.2734 57.3691 25.877V13.3379C57.3691 13.0547 57.418 12.8398 57.5156 12.6934C57.9551 12.0488 58.5703 11.3701 59.3613 10.6572C59.5078 10.54 59.6348 10.4814 59.7422 10.4814C59.8594 10.4814 59.9814 10.54 60.1084 10.6572C60.5381 11.0283 60.8994 11.3848 61.1924 11.7266C61.4854 12.0586 61.7393 12.3809 61.9541 12.6934C62.0518 12.8496 62.1006 13.0645 62.1006 13.3379V25.877ZM73.3359 32.3662C70.875 32.3662 68.9268 31.7119 67.4912 30.4033C66.0557 29.0947 65.3379 27.1465 65.3379 24.5586C65.3379 21.9023 66.0801 19.9199 67.5645 18.6113C69.0586 17.293 71.0508 16.6338 73.541 16.6338C75.9434 16.6338 77.8672 17.2832 79.3125 18.582C80.7578 19.8711 81.4805 21.7754 81.4805 24.2949C81.4805 26.9219 80.7578 28.9238 79.3125 30.3008C77.8672 31.6777 75.875 32.3662 73.3359 32.3662ZM73.4824 28.8213C74.5566 28.8213 75.3672 28.4893 75.9141 27.8252C76.4609 27.1514 76.7344 26.0039 76.7344 24.3828C76.7344 22.8398 76.4561 21.7559 75.8994 21.1309C75.3525 20.4961 74.5371 20.1787 73.4531 20.1787C72.4082 20.1787 71.583 20.5205 70.9775 21.2041C70.3818 21.8779 70.084 22.9766 70.084 24.5C70.084 26.0918 70.3672 27.21 70.9336 27.8545C71.5098 28.499 72.3594 28.8213 73.4824 28.8213ZM85.2451 39.0459C84.8838 39.0459 84.6104 39.0068 84.4248 38.9287C84.2393 38.8604 84.083 38.7725 83.9561 38.665C83.7021 38.4209 83.4287 38.0791 83.1357 37.6396C83.0674 37.5322 82.9941 37.4053 82.916 37.2588C82.8379 37.1221 82.7988 37.0049 82.7988 36.9072C82.7988 36.7998 82.8232 36.7021 82.8721 36.6143C82.9209 36.5264 82.9795 36.4434 83.0479 36.3652C83.2041 36.1602 83.3945 35.9453 83.6191 35.7207C83.8438 35.5059 84.0342 35.335 84.1904 35.208C84.2979 35.1201 84.3857 35.0615 84.4541 35.0322C84.5225 35.0127 84.5811 35.0029 84.6299 35.0029C84.6787 35.0029 84.752 35.0127 84.8496 35.0322C84.9473 35.0518 85.0938 35.0615 85.2891 35.0615C85.9629 35.0615 86.666 34.8418 87.3984 34.4023C88.1309 33.9629 88.8535 33.1377 89.5664 31.9268C88.8242 31.2432 88.0918 30.3887 87.3691 29.3633C86.6562 28.3281 86.0117 27.21 85.4355 26.0088C84.8594 24.7979 84.3955 23.5918 84.0439 22.3906C83.7021 21.1895 83.5312 20.0811 83.5312 19.0654C83.5312 18.8506 83.585 18.6797 83.6924 18.5527C84.1416 17.9961 84.7812 17.415 85.6113 16.8096C85.7578 16.7119 85.8896 16.6631 86.0068 16.6631C86.1338 16.6631 86.2656 16.7119 86.4023 16.8096C86.8516 17.1318 87.2275 17.4346 87.5303 17.7178C87.8428 18.001 88.1064 18.2793 88.3213 18.5527C88.4287 18.6797 88.4824 18.8604 88.4824 19.0947V19.0361C88.4824 19.8076 88.5752 20.623 88.7607 21.4824C88.9463 22.3418 89.2002 23.1816 89.5225 24.002C89.8447 24.8125 90.2061 25.5498 90.6064 26.2139C91.0068 26.8682 91.4219 27.3906 91.8516 27.7812H91.9248C92.1201 27.4102 92.335 26.8779 92.5693 26.1846C92.8135 25.4814 93.043 24.7051 93.2578 23.8555C93.4727 22.9961 93.6484 22.1465 93.7852 21.3066C93.9219 20.457 93.9902 19.7051 93.9902 19.0508V19.0947C93.9902 18.8604 94.0391 18.6797 94.1367 18.5527C94.3613 18.2793 94.625 18.001 94.9277 17.7178C95.2305 17.4346 95.5967 17.1318 96.0264 16.8096C96.1631 16.7119 96.29 16.6631 96.4072 16.6631C96.5439 16.6631 96.6709 16.7119 96.7881 16.8096C97.2275 17.1318 97.5986 17.4346 97.9014 17.7178C98.2041 18.001 98.4629 18.2793 98.6777 18.5527C98.7754 18.6797 98.8242 18.8555 98.8242 19.0801C98.8145 19.9688 98.6436 21.1309 98.3115 22.5664C97.9795 23.9922 97.4961 25.54 96.8613 27.21C96.2266 28.8799 95.4551 30.5156 94.5469 32.1172C93.1895 34.5293 91.7246 36.2871 90.1523 37.3906C88.5801 38.4941 86.9443 39.0459 85.2451 39.0459ZM98.8242 19.0508V19.0947V19.0801C98.8242 19.0703 98.8242 19.0605 98.8242 19.0508ZM83.5312 19.0508V19.0654V19.0947V19.0508ZM108.053 31.2236C108.053 31.5166 107.989 31.7217 107.862 31.8389C107.745 31.9463 107.54 32 107.247 32H104.229C103.937 32 103.727 31.9463 103.6 31.8389C103.482 31.7217 103.424 31.5166 103.424 31.2236V20.4131H101.695C101.402 20.4131 101.197 20.3545 101.08 20.2373C100.973 20.1104 100.919 19.9004 100.919 19.6074V17.8057C100.919 17.5127 100.973 17.3076 101.08 17.1904C101.197 17.0635 101.402 17 101.695 17H103.424V15.1396C103.424 13.958 103.658 12.9424 104.127 12.0928C104.605 11.2432 105.245 10.5889 106.046 10.1299C106.856 9.6709 107.755 9.44141 108.741 9.44141C109.2 9.44141 109.547 9.46094 109.781 9.5C110.025 9.53906 110.206 9.59766 110.323 9.67578C110.704 9.89063 111.231 10.3301 111.905 10.9941C112.013 11.1113 112.066 11.2285 112.066 11.3457C112.066 11.4727 111.983 11.6191 111.817 11.7852C111.524 12.0879 111.246 12.3467 110.982 12.5615C110.719 12.7666 110.504 12.9229 110.338 13.0303C110.191 13.1182 110.06 13.1719 109.942 13.1914C109.835 13.2012 109.684 13.2061 109.488 13.2061C108.531 13.2061 108.053 13.9385 108.053 15.4033V17H110.704C110.997 17 111.197 17.0635 111.305 17.1904C111.422 17.3076 111.48 17.5127 111.48 17.8057V19.6074C111.48 19.9004 111.422 20.1104 111.305 20.2373C111.197 20.3545 110.997 20.4131 110.704 20.4131H108.053V31.2236ZM118.629 32.3662C115.152 32.3662 113.414 30.2617 113.414 26.0527L113.399 18.6113C113.399 18.377 113.448 18.1963 113.546 18.0693C113.956 17.5322 114.557 16.9512 115.348 16.3262C115.484 16.2285 115.606 16.1797 115.714 16.1797C115.841 16.1797 115.963 16.2285 116.08 16.3262C116.5 16.6484 116.852 16.9512 117.135 17.2344C117.428 17.5176 117.677 17.7959 117.882 18.0693C117.979 18.1963 118.028 18.377 118.028 18.6113V25.6426C118.028 27.7617 118.868 28.8213 120.548 28.8213C121.378 28.8213 122.042 28.5332 122.54 27.957C123.038 27.3711 123.287 26.5801 123.287 25.584V18.6113C123.287 18.377 123.336 18.1963 123.434 18.0693C123.844 17.5322 124.444 16.9512 125.235 16.3262C125.372 16.2285 125.494 16.1797 125.602 16.1797C125.729 16.1797 125.851 16.2285 125.968 16.3262C126.388 16.6484 126.739 16.9512 127.022 17.2344C127.315 17.5176 127.564 17.7959 127.77 18.0693C127.867 18.1963 127.916 18.377 127.916 18.6113V31.3262C127.916 31.5117 127.853 31.6729 127.726 31.8096C127.599 31.9365 127.438 32 127.242 32H125.045C124.889 32 124.747 31.9805 124.62 31.9414C124.503 31.8926 124.391 31.8047 124.283 31.6777L123.375 30.5059H123.272C123.116 30.7305 122.872 30.9893 122.54 31.2822C122.218 31.5752 121.744 31.8291 121.119 32.0439C120.504 32.2588 119.674 32.3662 118.629 32.3662ZM133.805 32.3076C133.6 32.3955 133.453 32.4395 133.365 32.4395C133.277 32.4395 133.185 32.4053 133.087 32.3369C132.862 32.1807 132.604 31.7998 132.311 31.1943C132.027 30.5791 131.886 29.6367 131.886 28.3672V11.4043C131.886 11.1699 131.935 10.9893 132.032 10.8623C132.442 10.3252 133.043 9.74414 133.834 9.11914C133.971 9.02148 134.093 8.97266 134.2 8.97266C134.327 8.97266 134.449 9.02148 134.566 9.11914C134.986 9.44141 135.338 9.74414 135.621 10.0273C135.914 10.3105 136.163 10.5889 136.368 10.8623C136.466 10.9893 136.515 11.1699 136.515 11.4043V27.4736C136.515 28.1182 136.568 28.6699 136.676 29.1289C136.783 29.5781 136.91 29.9395 137.057 30.2129C137.223 30.5352 137.159 30.7646 136.866 30.9014L133.805 32.3076Z" fill="#719FDD"/>
<path d="M154.162 28.4111C154.875 28.4111 155.432 28.3379 155.832 28.1914C156.242 28.0449 156.56 27.8643 156.784 27.6494C157.009 27.4346 157.204 27.2197 157.37 27.0049C157.526 26.8096 157.653 26.6631 157.751 26.5654C157.858 26.4678 158.005 26.3994 158.19 26.3604C158.347 26.3115 158.596 26.2822 158.938 26.2725C159.289 26.2529 159.636 26.2432 159.978 26.2432C160.329 26.2432 160.573 26.2529 160.71 26.2725C160.915 26.2822 161.057 26.3213 161.135 26.3896C161.213 26.458 161.262 26.6045 161.281 26.8291C161.311 27.1416 161.325 27.5127 161.325 27.9424C161.335 28.3721 161.33 28.7432 161.311 29.0557C161.301 29.1533 161.281 29.2363 161.252 29.3047C161.232 29.373 161.184 29.4756 161.105 29.6123C161.008 29.7686 160.817 29.998 160.534 30.3008C160.251 30.5938 159.836 30.9014 159.289 31.2236C158.742 31.5361 158.034 31.8047 157.165 32.0293C156.306 32.2539 155.246 32.3662 153.986 32.3662C152.639 32.3662 151.379 32.1953 150.207 31.8535C149.035 31.502 148.005 30.916 147.116 30.0957C146.237 29.2754 145.549 28.167 145.051 26.7705C144.562 25.374 144.318 23.6309 144.318 21.541C144.318 19.2168 144.719 17.2441 145.52 15.623C146.33 13.9922 147.478 12.752 148.962 11.9023C150.446 11.0527 152.204 10.6279 154.235 10.6279C155.661 10.6279 156.804 10.7744 157.663 11.0674C158.532 11.3604 159.191 11.707 159.641 12.1074C160.09 12.498 160.407 12.8398 160.593 13.1328C160.661 13.2402 160.71 13.3379 160.739 13.4258C160.769 13.5039 160.788 13.6309 160.798 13.8066C160.827 14.041 160.832 14.3828 160.812 14.832C160.803 15.2813 160.769 15.6768 160.71 16.0186C160.671 16.2334 160.607 16.375 160.52 16.4434C160.48 16.4824 160.412 16.5166 160.314 16.5459C160.217 16.5752 160.07 16.5898 159.875 16.5898C159.562 16.5898 159.211 16.5801 158.82 16.5605C158.43 16.5312 158.137 16.502 157.941 16.4727C157.707 16.4336 157.536 16.3799 157.429 16.3115C157.321 16.2334 157.214 16.1162 157.106 15.96C156.931 15.7061 156.628 15.4131 156.198 15.0811C155.769 14.749 155.061 14.583 154.074 14.583C152.688 14.583 151.545 15.1201 150.646 16.1943C149.748 17.2588 149.299 18.9873 149.299 21.3799C149.299 23.7627 149.768 25.5303 150.705 26.6826C151.652 27.835 152.805 28.4111 154.162 28.4111ZM168.825 19.7832H168.884C169.616 17.752 170.935 16.7363 172.839 16.7363C173.083 16.7363 173.283 16.751 173.439 16.7803C173.596 16.7998 173.703 16.8193 173.762 16.8389C173.908 16.8877 173.981 17 173.981 17.1758V20.7061C173.981 21.0088 173.806 21.0918 173.454 20.9551C173.337 20.9062 173.166 20.8574 172.941 20.8086C172.727 20.75 172.424 20.7207 172.033 20.7207C171.027 20.7207 170.241 21.0918 169.675 21.834C169.108 22.5664 168.825 23.5674 168.825 24.8369V31.2236C168.825 31.5166 168.762 31.7217 168.635 31.8389C168.518 31.9463 168.312 32 168.02 32H165.002C164.709 32 164.499 31.9463 164.372 31.8389C164.255 31.7217 164.196 31.5166 164.196 31.2236V18.9482C164.196 18.7139 164.245 18.5332 164.343 18.4062C164.548 18.1328 164.792 17.8545 165.075 17.5713C165.368 17.2881 165.725 16.9854 166.145 16.6631C166.223 16.6045 166.301 16.5654 166.379 16.5459C166.457 16.5264 166.525 16.5166 166.584 16.5166C166.721 16.5166 166.857 16.5654 166.994 16.6631C167.805 17.2979 168.371 17.8398 168.693 18.2891C168.781 18.4062 168.825 18.543 168.825 18.6992V19.7832ZM179.914 32.3662C178.479 32.3662 177.336 31.9658 176.486 31.165C175.646 30.3545 175.227 29.2412 175.227 27.8252C175.227 27.0928 175.358 26.4141 175.622 25.7891C175.896 25.1543 176.364 24.5977 177.028 24.1191C177.702 23.6309 178.64 23.2402 179.841 22.9473C181.052 22.6543 182.595 22.4834 184.47 22.4346C184.47 21.5459 184.245 20.9062 183.796 20.5156C183.356 20.125 182.692 19.9297 181.804 19.9297C181.003 19.9297 180.349 20.0664 179.841 20.3398C179.333 20.6133 179.016 20.7988 178.889 20.8965C178.752 21.0137 178.586 21.0576 178.391 21.0283C178.127 20.9893 177.844 20.9209 177.541 20.8232C177.248 20.7256 176.931 20.6133 176.589 20.4863C176.54 20.4668 176.486 20.4375 176.428 20.3984C176.369 20.3496 176.335 20.2812 176.325 20.1934C176.325 20.1445 176.33 20.0859 176.34 20.0176C176.35 19.9395 176.374 19.8027 176.413 19.6074C176.452 19.4121 176.511 19.1729 176.589 18.8896C176.667 18.5967 176.74 18.3721 176.809 18.2158C176.896 18.0498 177.043 17.8936 177.248 17.7471C177.414 17.6104 177.917 17.3906 178.757 17.0879C179.597 16.7852 180.812 16.6338 182.404 16.6338C186.789 16.6338 188.981 18.7676 188.981 23.0352V31.3262C188.981 31.5117 188.928 31.6729 188.82 31.8096C188.723 31.9365 188.552 32 188.308 32H186.11C185.954 32 185.812 31.9805 185.686 31.9414C185.568 31.8926 185.456 31.8047 185.349 31.6777L184.44 30.5059H184.338C183.889 31.1602 183.283 31.6338 182.521 31.9268C181.77 32.2197 180.9 32.3662 179.914 32.3662ZM181.525 28.9678C182.424 28.9678 183.103 28.7383 183.562 28.2793C184.021 27.8203 184.313 27.3467 184.44 26.8584V25.2324C183.083 25.2324 182.062 25.3398 181.379 25.5547C180.705 25.7598 180.256 26.0332 180.031 26.375C179.807 26.707 179.694 27.0684 179.694 27.459C179.694 28.0254 179.87 28.4209 180.222 28.6455C180.573 28.8604 181.008 28.9678 181.525 28.9678ZM198.459 31.2236C198.459 31.5166 198.396 31.7217 198.269 31.8389C198.151 31.9463 197.946 32 197.653 32H194.636C194.343 32 194.133 31.9463 194.006 31.8389C193.889 31.7217 193.83 31.5166 193.83 31.2236V20.4131H192.102C191.809 20.4131 191.604 20.3545 191.486 20.2373C191.379 20.1104 191.325 19.9004 191.325 19.6074V17.8057C191.325 17.5127 191.379 17.3076 191.486 17.1904C191.604 17.0635 191.809 17 192.102 17H193.83V15.1396C193.83 13.958 194.064 12.9424 194.533 12.0928C195.012 11.2432 195.651 10.5889 196.452 10.1299C197.263 9.6709 198.161 9.44141 199.147 9.44141C199.606 9.44141 199.953 9.46094 200.188 9.5C200.432 9.53906 200.612 9.59766 200.729 9.67578C201.11 9.89063 201.638 10.3301 202.312 10.9941C202.419 11.1113 202.473 11.2285 202.473 11.3457C202.473 11.4727 202.39 11.6191 202.224 11.7852C201.931 12.0879 201.652 12.3467 201.389 12.5615C201.125 12.7666 200.91 12.9229 200.744 13.0303C200.598 13.1182 200.466 13.1719 200.349 13.1914C200.241 13.2012 200.09 13.2061 199.895 13.2061C198.938 13.2061 198.459 13.9385 198.459 15.4033V17H201.11C201.403 17 201.604 17.0635 201.711 17.1904C201.828 17.3076 201.887 17.5127 201.887 17.8057V19.6074C201.887 19.9004 201.828 20.1104 201.711 20.2373C201.604 20.3545 201.403 20.4131 201.11 20.4131H198.459V31.2236ZM210.471 32.3662C207.209 32.3662 205.578 30.6719 205.578 27.2832V20.4131H203.923C203.63 20.4131 203.425 20.3545 203.308 20.2373C203.2 20.1104 203.146 19.9004 203.146 19.6074V17.8057C203.146 17.5127 203.2 17.3076 203.308 17.1904C203.425 17.0635 203.63 17 203.923 17H205.578V14.6416C205.578 14.4072 205.627 14.2266 205.725 14.0996C206.135 13.5625 206.735 12.9814 207.526 12.3564C207.663 12.2588 207.785 12.21 207.893 12.21C208.01 12.21 208.127 12.2588 208.244 12.3564C208.664 12.6787 209.016 12.9814 209.299 13.2646C209.592 13.5479 209.841 13.8262 210.046 14.0996C210.144 14.2266 210.192 14.4072 210.192 14.6416V17H212.785C213.078 17 213.278 17.0635 213.386 17.1904C213.503 17.3076 213.562 17.5127 213.562 17.8057V19.6074C213.562 19.9004 213.503 20.1104 213.386 20.2373C213.278 20.3545 213.078 20.4131 212.785 20.4131H210.192V26.4775C210.192 28.04 210.759 28.8213 211.892 28.8213C212.067 28.8213 212.229 28.8066 212.375 28.7773C212.521 28.7383 212.648 28.6992 212.756 28.6602C212.961 28.582 213.103 28.5527 213.181 28.5723C213.269 28.5918 213.347 28.6992 213.415 28.8945L214.265 31.165C214.353 31.4092 214.294 31.585 214.089 31.6924C213.942 31.7607 213.586 31.8877 213.02 32.0732C212.463 32.2686 211.613 32.3662 210.471 32.3662Z" fill="#EEC96C"/>
<circle cx="22.5" cy="22.5" r="22.5" fill="url(#paint0_linear_29_24)"/>
<path d="M20.9828 8.06475C21.3393 7.2869 22.4445 7.2869 22.8009 8.06475L26.3148 15.7322C26.4545 16.0371 26.7378 16.2517 27.0692 16.3036L35.0424 17.5512C35.8395 17.676 36.1683 18.6448 35.6118 19.229L29.7517 25.3806C29.5366 25.6064 29.4391 25.9196 29.4882 26.2276L30.8587 34.8328C30.9904 35.6601 30.1074 36.273 29.3784 35.8603L22.3846 31.9005C22.0789 31.7275 21.7048 31.7275 21.3992 31.9005L14.4053 35.8603C13.6763 36.273 12.7933 35.6601 12.9251 34.8328L14.2955 26.2276C14.3446 25.9196 14.2472 25.6064 14.032 25.3806L8.1719 19.229C7.61539 18.6448 7.94422 17.676 8.74135 17.5512L16.7145 16.3036C17.0459 16.2517 17.3292 16.0371 17.469 15.7322L20.9828 8.06475Z" fill="white"/>
<defs>
<linearGradient id="paint0_linear_29_24" x1="22.5" y1="0" x2="22.5" y2="45" gradientUnits="userSpaceOnUse">
<stop stop-color="#719FDD"/>
<stop offset="1" stop-color="#7BB0F7"/>
</linearGradient>
</defs>
</svg>
