<svg width="1440" height="1024" viewBox="0 0 1440 1024" fill="none" xmlns="http://www.w3.org/2000/svg">
<g clip-path="url(#clip0_74_20)">
<rect width="1440" height="1024" fill="#719FDD"/>
<path d="M556.005 403.093C556.208 399.223 561.244 397.874 563.355 401.124L566.615 406.145C567.559 407.598 569.332 408.278 571.005 407.83L576.788 406.28C580.531 405.277 583.371 409.65 580.932 412.661L577.165 417.314C576.074 418.661 575.975 420.557 576.918 422.01L580.179 427.031C582.29 430.281 579.009 434.333 575.391 432.944L569.802 430.798C568.184 430.177 566.35 430.669 565.26 432.016L561.492 436.668C559.053 439.68 554.186 437.811 554.389 433.942L554.702 427.963C554.793 426.232 553.759 424.64 552.141 424.019L546.552 421.874C542.934 420.485 543.207 415.278 546.95 414.276L552.733 412.726C554.407 412.278 555.601 410.802 555.692 409.072L556.005 403.093Z" fill="#EEC96C" fill-opacity="0.5"/>
<path d="M813.182 446C814.264 442.279 819.476 442.118 820.787 445.764L822.813 451.398C823.399 453.028 824.969 454.096 826.701 454.042L832.685 453.856C836.558 453.736 838.322 458.642 835.26 461.016L830.528 464.684C829.158 465.745 828.628 467.568 829.214 469.199L831.24 474.833C832.551 478.479 828.43 481.673 825.226 479.494L820.276 476.127C818.843 475.152 816.945 475.211 815.576 476.273L810.844 479.94C807.781 482.314 803.47 479.382 804.553 475.661L806.225 469.913C806.709 468.249 806.067 466.462 804.634 465.488L799.683 462.121C796.479 459.942 797.936 454.935 801.809 454.815L807.793 454.629C809.525 454.576 811.025 453.413 811.51 451.749L813.182 446Z" fill="#EEC96C" fill-opacity="0.5"/>
<path d="M369.807 284.019C370.01 280.15 375.046 278.8 377.156 282.05L380.417 287.071C381.361 288.524 383.133 289.205 384.807 288.756L390.59 287.207C394.333 286.204 397.172 290.576 394.734 293.588L390.966 298.24C389.875 299.587 389.776 301.483 390.72 302.936L393.981 307.957C396.091 311.207 392.81 315.259 389.192 313.87L383.603 311.725C381.985 311.104 380.151 311.595 379.061 312.942L375.293 317.595C372.855 320.606 367.987 318.738 368.19 314.868L368.503 308.889C368.594 307.159 367.56 305.566 365.942 304.945L360.353 302.8C356.735 301.411 357.008 296.205 360.751 295.202L366.534 293.652C368.208 293.204 369.403 291.728 369.493 289.998L369.807 284.019Z" fill="#EEC96C" fill-opacity="0.5"/>
<path d="M1004.38 473.845C1006.28 470.467 1011.39 471.492 1011.84 475.341L1012.53 481.288C1012.73 483.009 1014.02 484.405 1015.72 484.746L1021.59 485.923C1025.39 486.685 1025.99 491.863 1022.47 493.48L1017.03 495.978C1015.45 496.701 1014.52 498.356 1014.72 500.077L1015.42 506.024C1015.87 509.873 1011.13 512.048 1008.5 509.198L1004.45 504.796C1003.27 503.521 1001.41 503.148 999.837 503.871L994.396 506.369C990.874 507.986 987.341 504.152 989.24 500.774L992.174 495.555C993.023 494.044 992.803 492.158 991.628 490.884L987.571 486.481C984.945 483.632 987.5 479.087 991.299 479.849L997.169 481.026C998.869 481.367 1000.59 480.575 1001.44 479.064L1004.38 473.845Z" fill="#EEC96C" fill-opacity="0.5"/>
<path d="M698.52 632.026C700.419 628.648 705.531 629.674 705.98 633.522L706.675 639.469C706.876 641.19 708.162 642.586 709.861 642.927L715.731 644.104C719.531 644.866 720.135 650.045 716.614 651.661L711.173 654.159C709.598 654.882 708.668 656.537 708.869 658.258L709.563 664.205C710.012 668.054 705.274 670.229 702.648 667.38L698.591 662.977C697.417 661.702 695.556 661.329 693.981 662.052L688.54 664.55C685.018 666.167 681.485 662.333 683.384 658.955L686.318 653.736C687.167 652.225 686.947 650.34 685.772 649.065L681.715 644.663C679.089 641.813 681.644 637.268 685.443 638.03L691.313 639.207C693.012 639.548 694.738 638.756 695.587 637.245L698.52 632.026Z" fill="#EEC96C" fill-opacity="0.5"/>
<path d="M394.508 648.479C394.717 644.609 399.755 643.269 401.86 646.522L407.337 654.987C408.278 656.442 410.05 657.125 411.724 656.679L421.467 654.086C425.212 653.089 428.044 657.467 425.6 660.474L419.242 668.299C418.149 669.644 418.047 671.539 418.988 672.994L424.465 681.459C426.57 684.712 423.282 688.758 419.667 687.364L410.261 683.735C408.644 683.111 406.809 683.599 405.717 684.944L399.359 692.769C396.915 695.776 392.051 693.9 392.26 690.03L392.805 679.963C392.898 678.233 391.867 676.639 390.25 676.015L380.844 672.386C377.229 670.991 377.51 665.785 381.255 664.789L390.998 662.196C392.672 661.75 393.869 660.277 393.963 658.546L394.508 648.479Z" fill="#EEC96C"/>
<path d="M689.273 300.597C689.483 296.727 694.521 295.386 696.626 298.64L702.103 307.104C703.044 308.559 704.815 309.243 706.49 308.797L716.233 306.204C719.978 305.207 722.81 309.584 720.366 312.592L714.008 320.416C712.915 321.761 712.813 323.657 713.754 325.112L719.231 333.577C721.336 336.83 718.048 340.876 714.433 339.482L705.027 335.853C703.41 335.229 701.575 335.717 700.483 337.062L694.125 344.887C691.681 347.894 686.817 346.017 687.026 342.148L687.571 332.081C687.664 330.35 686.633 328.757 685.016 328.133L675.61 324.504C671.994 323.109 672.276 317.903 676.021 316.907L685.764 314.313C687.438 313.868 688.635 312.394 688.729 310.664L689.273 300.597Z" fill="#EEC96C"/>
<path d="M1053.5 687.586C1053.71 683.717 1058.75 682.376 1060.85 685.629L1066.33 694.094C1067.27 695.549 1069.04 696.232 1070.72 695.787L1080.46 693.194C1084.2 692.197 1087.04 696.574 1084.59 699.581L1078.23 707.406C1077.14 708.751 1077.04 710.647 1077.98 712.102L1083.46 720.566C1085.56 723.82 1082.27 727.866 1078.66 726.471L1069.25 722.842C1067.64 722.219 1065.8 722.707 1064.71 724.052L1058.35 731.876C1055.91 734.884 1051.04 733.007 1051.25 729.138L1051.8 719.07C1051.89 717.34 1050.86 715.746 1049.24 715.123L1039.84 711.494C1036.22 710.099 1036.5 704.893 1040.25 703.896L1049.99 701.303C1051.66 700.857 1052.86 699.384 1052.95 697.654L1053.5 687.586Z" fill="#EEC96C"/>
<path d="M1053.33 274.508C1054.64 270.862 1059.85 271.025 1060.93 274.746L1063.75 284.428C1064.23 286.092 1065.73 287.255 1067.46 287.309L1077.54 287.624C1081.41 287.745 1082.87 292.751 1079.66 294.93L1071.32 300.598C1069.89 301.573 1069.25 303.359 1069.73 305.023L1072.55 314.704C1073.63 318.425 1069.32 321.356 1066.25 318.982L1058.29 312.804C1056.92 311.742 1055.02 311.683 1053.59 312.657L1045.25 318.325C1042.05 320.504 1037.92 317.309 1039.24 313.663L1042.65 304.176C1043.24 302.546 1042.71 300.723 1041.34 299.661L1033.37 293.483C1030.31 291.109 1032.07 286.203 1035.95 286.324L1046.02 286.639C1047.76 286.693 1049.33 285.626 1049.91 283.995L1053.33 274.508Z" fill="#EEC96C"/>
<path d="M868.864 318.299C871.646 315.601 876.254 318.039 875.59 321.857L875.547 322.099C875.25 323.807 876.086 325.511 877.618 326.321L877.836 326.436C881.261 328.248 880.367 333.385 876.531 333.932L876.287 333.967C874.571 334.212 873.208 335.533 872.911 337.241L872.869 337.483C872.204 341.301 867.043 342.038 865.337 338.559L865.228 338.337C864.465 336.782 862.787 335.894 861.072 336.139L860.828 336.174C856.992 336.721 854.696 332.04 857.478 329.342L857.655 329.171C858.899 327.964 859.224 326.094 858.461 324.538L858.353 324.317C856.647 320.838 860.389 317.208 863.814 319.02L864.032 319.135C865.564 319.945 867.443 319.677 868.687 318.471L868.864 318.299Z" fill="#EEC96C" fill-opacity="0.2"/>
<path d="M414.788 490.056C418.453 488.799 421.585 492.967 419.358 496.138L419.216 496.34C418.221 497.758 418.251 499.656 419.292 501.042L419.44 501.239C421.768 504.337 418.771 508.603 415.067 507.465L414.832 507.393C413.175 506.884 411.38 507.499 410.384 508.918L410.242 509.119C408.015 512.29 403.031 510.759 402.969 506.885L402.965 506.638C402.937 504.906 401.797 503.388 400.14 502.879L399.905 502.807C396.201 501.669 396.117 496.456 399.783 495.199L400.016 495.119C401.655 494.557 402.746 493.004 402.718 491.271L402.714 491.025C402.652 487.15 407.584 485.46 409.912 488.558L410.06 488.755C411.101 490.14 412.915 490.698 414.554 490.136L414.788 490.056Z" fill="#EEC96C" fill-opacity="0.2"/>
<path d="M609.18 546.231C612.882 547.375 612.957 552.589 609.289 553.839L609.056 553.918C607.416 554.477 606.322 556.029 606.347 557.762L606.351 558.008C606.406 561.883 601.472 563.565 599.149 560.463L599.002 560.266C597.963 558.879 596.149 558.318 594.509 558.877L594.276 558.957C590.608 560.207 587.483 556.034 589.716 552.866L589.858 552.665C590.856 551.248 590.829 549.35 589.79 547.963L589.642 547.766C587.32 544.664 590.324 540.403 594.026 541.547L594.261 541.62C595.917 542.131 597.713 541.519 598.712 540.102L598.854 539.901C601.086 536.734 606.067 538.273 606.123 542.148L606.126 542.394C606.151 544.127 607.289 545.647 608.945 546.158L609.18 546.231Z" fill="#EEC96C" fill-opacity="0.2"/>
<path d="M826.898 746.438C830.6 747.583 830.675 752.796 827.007 754.046L826.774 754.126C825.134 754.685 824.04 756.236 824.065 757.969L824.069 758.215C824.124 762.09 819.19 763.772 816.867 760.67L816.72 760.473C815.681 759.086 813.867 758.525 812.227 759.085L811.994 759.164C808.326 760.414 805.201 756.241 807.434 753.074L807.576 752.872C808.574 751.456 808.547 749.558 807.508 748.17L807.36 747.973C805.038 744.871 808.042 740.61 811.744 741.754L811.979 741.827C813.635 742.339 815.431 741.726 816.43 740.31L816.572 740.108C818.804 736.941 823.785 738.481 823.841 742.355L823.844 742.602C823.869 744.334 825.007 745.854 826.663 746.366L826.898 746.438Z" fill="#EEC96C" fill-opacity="0.2"/>
<path d="M546.358 275.846C550.225 276.087 551.525 281.136 548.255 283.214L548.047 283.347C546.584 284.276 545.887 286.042 546.319 287.72L546.38 287.958C547.346 291.711 542.946 294.507 539.959 292.039L539.769 291.882C538.433 290.779 536.538 290.661 535.076 291.59L534.868 291.722C531.597 293.801 527.578 290.48 529.002 286.876L529.093 286.647C529.73 285.036 529.256 283.197 527.92 282.094L527.73 281.937C524.743 279.469 526.659 274.62 530.527 274.861L530.772 274.876C532.502 274.984 534.104 273.965 534.741 272.354L534.832 272.125C536.256 268.521 541.459 268.845 542.425 272.597L542.487 272.836C542.919 274.514 544.382 275.723 546.112 275.831L546.358 275.846Z" fill="#EEC96C" fill-opacity="0.2"/>
<path d="M902.173 631.31C905.838 630.054 908.97 634.222 906.743 637.393L906.602 637.594C905.606 639.012 905.636 640.911 906.677 642.296L906.825 642.493C909.153 645.591 906.156 649.857 902.452 648.719L902.217 648.647C900.561 648.138 898.765 648.754 897.769 650.172L897.627 650.373C895.4 653.544 890.417 652.013 890.354 648.139L890.35 647.893C890.322 646.16 889.182 644.642 887.526 644.133L887.29 644.061C883.586 642.923 883.502 637.71 887.168 636.453L887.401 636.374C889.04 635.812 890.131 634.258 890.103 632.525L890.099 632.279C890.037 628.405 894.969 626.714 897.297 629.812L897.445 630.009C898.486 631.394 900.3 631.952 901.94 631.39L902.173 631.31Z" fill="#EEC96C" fill-opacity="0.2"/>
<path d="M553.707 699.019C557.372 697.762 560.504 701.93 558.277 705.101L558.136 705.303C557.14 706.721 557.17 708.619 558.211 710.005L558.359 710.201C560.687 713.299 557.691 717.566 553.987 716.428L553.751 716.356C552.095 715.847 550.299 716.462 549.303 717.88L549.161 718.082C546.934 721.253 541.951 719.722 541.888 715.847L541.884 715.601C541.857 713.868 540.716 712.351 539.06 711.842L538.824 711.769C535.12 710.631 535.036 705.418 538.702 704.162L538.935 704.082C540.574 703.52 541.665 701.967 541.637 700.234L541.633 699.988C541.571 696.113 546.503 694.423 548.831 697.52L548.979 697.717C550.02 699.103 551.834 699.66 553.474 699.098L553.707 699.019Z" fill="#EEC96C" fill-opacity="0.2"/>
<path d="M1389.74 403.093C1389.95 399.223 1394.98 397.874 1397.09 401.124L1400.35 406.145C1401.3 407.598 1403.07 408.278 1404.74 407.83L1410.53 406.28C1414.27 405.277 1417.11 409.65 1414.67 412.661L1410.9 417.314C1409.81 418.661 1409.71 420.557 1410.66 422.01L1413.92 427.031C1416.03 430.281 1412.75 434.333 1409.13 432.944L1403.54 430.798C1401.92 430.177 1400.09 430.669 1399 432.016L1395.23 436.668C1392.79 439.68 1387.93 437.811 1388.13 433.942L1388.44 427.963C1388.53 426.232 1387.5 424.64 1385.88 424.019L1380.29 421.874C1376.67 420.485 1376.95 415.278 1380.69 414.276L1386.47 412.726C1388.15 412.278 1389.34 410.802 1389.43 409.072L1389.74 403.093Z" fill="#EEC96C" fill-opacity="0.5"/>
<path d="M1203.55 284.019C1203.75 280.15 1208.78 278.8 1210.9 282.05L1214.16 287.071C1215.1 288.524 1216.87 289.205 1218.55 288.756L1224.33 287.207C1228.07 286.204 1230.91 290.576 1228.47 293.588L1224.71 298.24C1223.61 299.587 1223.52 301.483 1224.46 302.936L1227.72 307.957C1229.83 311.207 1226.55 315.259 1222.93 313.87L1217.34 311.725C1215.72 311.104 1213.89 311.595 1212.8 312.942L1209.03 317.595C1206.59 320.606 1201.73 318.738 1201.93 314.868L1202.24 308.889C1202.33 307.159 1201.3 305.566 1199.68 304.945L1194.09 302.8C1190.47 301.411 1190.75 296.205 1194.49 295.202L1200.27 293.652C1201.95 293.204 1203.14 291.728 1203.23 289.998L1203.55 284.019Z" fill="#EEC96C" fill-opacity="0.5"/>
<path d="M1228.25 648.479C1228.46 644.609 1233.49 643.269 1235.6 646.522L1241.08 654.987C1242.02 656.442 1243.79 657.125 1245.46 656.679L1255.21 654.086C1258.95 653.089 1261.78 657.467 1259.34 660.474L1252.98 668.299C1251.89 669.644 1251.79 671.539 1252.73 672.994L1258.2 681.459C1260.31 684.712 1257.02 688.758 1253.41 687.364L1244 683.735C1242.38 683.111 1240.55 683.599 1239.46 684.944L1233.1 692.769C1230.65 695.776 1225.79 693.9 1226 690.03L1226.54 679.963C1226.64 678.233 1225.61 676.639 1223.99 676.015L1214.58 672.386C1210.97 670.991 1211.25 665.785 1214.99 664.789L1224.74 662.196C1226.41 661.75 1227.61 660.277 1227.7 658.546L1228.25 648.479Z" fill="#EEC96C"/>
<path d="M1248.53 490.056C1252.19 488.799 1255.32 492.967 1253.1 496.138L1252.96 496.34C1251.96 497.758 1251.99 499.656 1253.03 501.042L1253.18 501.239C1255.51 504.337 1252.51 508.603 1248.81 507.465L1248.57 507.393C1246.91 506.884 1245.12 507.499 1244.12 508.918L1243.98 509.119C1241.75 512.29 1236.77 510.759 1236.71 506.885L1236.7 506.638C1236.68 504.906 1235.54 503.388 1233.88 502.879L1233.64 502.807C1229.94 501.669 1229.86 496.456 1233.52 495.199L1233.76 495.119C1235.39 494.557 1236.49 493.004 1236.46 491.271L1236.45 491.025C1236.39 487.15 1241.32 485.46 1243.65 488.558L1243.8 488.755C1244.84 490.14 1246.65 490.698 1248.29 490.136L1248.53 490.056Z" fill="#EEC96C" fill-opacity="0.2"/>
<path d="M1442.92 546.231C1446.62 547.375 1446.7 552.589 1443.03 553.839L1442.8 553.918C1441.16 554.477 1440.06 556.029 1440.09 557.762L1440.09 558.008C1440.15 561.883 1435.21 563.565 1432.89 560.463L1432.74 560.266C1431.7 558.879 1429.89 558.318 1428.25 558.877L1428.02 558.957C1424.35 560.207 1421.22 556.034 1423.45 552.866L1423.6 552.665C1424.6 551.248 1424.57 549.35 1423.53 547.963L1423.38 547.766C1421.06 544.664 1424.06 540.403 1427.76 541.547L1428 541.62C1429.66 542.131 1431.45 541.519 1432.45 540.102L1432.59 539.901C1434.83 536.734 1439.81 538.273 1439.86 542.148L1439.87 542.394C1439.89 544.127 1441.03 545.647 1442.68 546.158L1442.92 546.231Z" fill="#EEC96C" fill-opacity="0.2"/>
<path d="M1380.1 275.846C1383.96 276.087 1385.26 281.136 1381.99 283.214L1381.79 283.347C1380.32 284.276 1379.63 286.042 1380.06 287.72L1380.12 287.958C1381.09 291.711 1376.69 294.507 1373.7 292.039L1373.51 291.882C1372.17 290.779 1370.28 290.661 1368.82 291.59L1368.61 291.722C1365.34 293.801 1361.32 290.48 1362.74 286.876L1362.83 286.647C1363.47 285.036 1363 283.197 1361.66 282.094L1361.47 281.937C1358.48 279.469 1360.4 274.62 1364.27 274.861L1364.51 274.876C1366.24 274.984 1367.84 273.965 1368.48 272.354L1368.57 272.125C1370 268.521 1375.2 268.845 1376.16 272.597L1376.23 272.836C1376.66 274.514 1378.12 275.723 1379.85 275.831L1380.1 275.846Z" fill="#EEC96C" fill-opacity="0.2"/>
<path d="M1387.45 699.019C1391.11 697.762 1394.24 701.93 1392.02 705.101L1391.87 705.303C1390.88 706.721 1390.91 708.619 1391.95 710.005L1392.1 710.201C1394.43 713.299 1391.43 717.566 1387.73 716.428L1387.49 716.356C1385.83 715.847 1384.04 716.462 1383.04 717.88L1382.9 718.082C1380.67 721.253 1375.69 719.722 1375.63 715.847L1375.62 715.601C1375.6 713.868 1374.46 712.351 1372.8 711.842L1372.56 711.769C1368.86 710.631 1368.78 705.418 1372.44 704.162L1372.67 704.082C1374.31 703.52 1375.4 701.967 1375.38 700.234L1375.37 699.988C1375.31 696.113 1380.24 694.423 1382.57 697.52L1382.72 697.717C1383.76 699.103 1385.57 699.66 1387.21 699.098L1387.45 699.019Z" fill="#EEC96C" fill-opacity="0.2"/>
<path d="M-3.27977 624.874C-3.48256 628.744 -8.51855 630.093 -10.629 626.843L-13.8898 621.822C-14.8336 620.369 -16.6059 619.689 -18.2797 620.137L-24.0628 621.687C-27.8056 622.69 -30.6452 618.317 -28.2066 615.306L-24.4388 610.653C-23.3483 609.306 -23.2489 607.41 -24.1927 605.957L-27.4535 600.936C-29.5639 597.686 -26.2829 593.634 -22.6654 595.023L-17.076 597.169C-15.4582 597.79 -13.6245 597.298 -12.5339 595.951L-8.76614 591.299C-6.32759 588.287 -1.46025 590.156 -1.66304 594.025L-1.97638 600.004C-2.06708 601.735 -1.03314 603.327 0.584664 603.948L6.17406 606.093C9.79158 607.482 9.51872 612.688 5.77586 613.691L-0.00718867 615.241C-1.68105 615.689 -2.87573 617.165 -2.96643 618.895L-3.27977 624.874Z" fill="#EEC96C" fill-opacity="0.5"/>
<path d="M182.919 743.948C182.716 747.817 177.68 749.167 175.57 745.917L172.309 740.896C171.365 739.443 169.593 738.762 167.919 739.211L162.136 740.76C158.393 741.763 155.554 737.391 157.992 734.379L161.76 729.727C162.85 728.38 162.95 726.484 162.006 725.031L158.745 720.01C156.635 716.76 159.916 712.708 163.533 714.097L169.123 716.242C170.741 716.863 172.574 716.372 173.665 715.025L177.433 710.372C179.871 707.361 184.738 709.229 184.536 713.099L184.222 719.078C184.132 720.808 185.166 722.4 186.783 723.022L192.373 725.167C195.99 726.556 195.717 731.762 191.975 732.765L186.192 734.315C184.518 734.763 183.323 736.238 183.232 737.969L182.919 743.948Z" fill="#EEC96C" fill-opacity="0.5"/>
<path d="M158.218 379.488C158.009 383.357 152.971 384.698 150.866 381.445L145.389 372.98C144.447 371.525 142.676 370.842 141.002 371.288L131.259 373.881C127.514 374.878 124.682 370.5 127.125 367.493L133.483 359.668C134.576 358.323 134.679 356.428 133.737 354.973L128.26 346.508C126.155 343.255 129.443 339.209 133.058 340.603L142.465 344.232C144.082 344.856 145.916 344.368 147.009 343.023L153.367 335.198C155.811 332.191 160.675 334.067 160.466 337.937L159.921 348.004C159.827 349.734 160.859 351.328 162.475 351.952L171.882 355.581C175.497 356.976 175.216 362.182 171.471 363.178L161.728 365.771C160.053 366.217 158.856 367.69 158.763 369.421L158.218 379.488Z" fill="#EEC96C"/>
<path d="M137.938 537.911C134.273 539.168 131.141 535 133.368 531.828L133.509 531.627C134.505 530.209 134.475 528.311 133.434 526.925L133.286 526.728C130.958 523.63 133.954 519.364 137.658 520.502L137.894 520.574C139.55 521.083 141.346 520.468 142.342 519.049L142.484 518.848C144.711 515.677 149.694 517.208 149.757 521.082L149.76 521.329C149.788 523.061 150.929 524.579 152.585 525.088L152.821 525.16C156.525 526.298 156.608 531.511 152.943 532.768L152.71 532.848C151.071 533.41 149.98 534.963 150.007 536.696L150.011 536.942C150.074 540.817 145.142 542.507 142.814 539.409L142.666 539.212C141.625 537.827 139.81 537.269 138.171 537.831L137.938 537.911Z" fill="#EEC96C" fill-opacity="0.2"/>
<path d="M6.36781 752.121C2.5004 751.88 1.20051 746.831 4.47083 744.753L4.67875 744.62C6.14128 743.691 6.83896 741.925 6.40691 740.247L6.34548 740.009C5.37938 736.256 9.77956 733.46 12.7668 735.928L12.9568 736.085C14.2927 737.188 16.1874 737.306 17.65 736.377L17.8579 736.245C21.1282 734.166 25.1475 737.487 23.7235 741.091L23.6329 741.32C22.996 742.931 23.4694 744.77 24.8053 745.873L24.9952 746.03C27.9825 748.498 26.0664 753.347 22.199 753.106L21.9531 753.091C20.2236 752.983 18.6214 754.002 17.9845 755.613L17.894 755.842C16.4699 759.446 11.2663 759.122 10.3002 755.37L10.2388 755.131C9.80676 753.453 8.34324 752.244 6.61368 752.136L6.36781 752.121Z" fill="#EEC96C" fill-opacity="0.2"/>
<path d="M-0.981018 328.948C-4.64654 330.205 -7.77843 326.037 -5.5515 322.866L-5.40992 322.664C-4.414 321.246 -4.44451 319.348 -5.48549 317.962L-5.63347 317.765C-7.96117 314.668 -4.96485 310.401 -1.26084 311.539L-1.02535 311.611C0.631131 312.12 2.42694 311.505 3.42285 310.087L3.56443 309.885C5.79136 306.714 10.7751 308.245 10.8373 312.12L10.8413 312.366C10.8692 314.099 12.0095 315.616 13.666 316.125L13.9015 316.198C17.6055 317.336 17.6893 322.549 14.0238 323.805L13.7907 323.885C12.1515 324.447 11.0605 326 11.0883 327.733L11.0923 327.979C11.1545 331.854 6.22261 333.544 3.89492 330.447L3.74693 330.25C2.70596 328.864 0.891294 328.307 -0.747978 328.869L-0.981018 328.948Z" fill="#EEC96C" fill-opacity="0.2"/>
</g>
<defs>
<clipPath id="clip0_74_20">
<rect width="1440" height="1024" fill="white"/>
</clipPath>
</defs>
</svg>
