<svg width="26" height="26" viewBox="0 0 26 26" fill="none" xmlns="http://www.w3.org/2000/svg">
<path d="M11.0235 1.77082C11.3731 -0.487993 14.6269 -0.487988 14.9765 1.77083L15.757 6.81411C15.9266 7.91031 16.956 8.65904 18.0512 8.48283L23.4009 7.62208C25.5856 7.27057 26.6392 10.2021 24.7306 11.3218L19.4974 14.3917C18.6207 14.906 18.2692 15.9961 18.6803 16.9257L21.0555 22.2962C21.9699 24.3637 19.2896 26.1229 17.7565 24.4614L14.4699 20.8995C13.6779 20.0412 12.3221 20.0412 11.5301 20.8995L8.24351 24.4614C6.71045 26.1229 4.03015 24.3637 4.94453 22.2962L7.31968 16.9257C7.7308 15.9961 7.37929 14.906 6.50256 14.3917L1.26938 11.3218C-0.639236 10.2021 0.414379 7.27057 2.59907 7.62208L7.94883 8.48283C9.04399 8.65904 10.0734 7.91031 10.243 6.81411L11.0235 1.77082Z" fill="url(#paint0_linear_14_18)"/>
<defs>
<linearGradient id="paint0_linear_14_18" x1="13" y1="-11" x2="13" y2="38" gradientUnits="userSpaceOnUse">
<stop stop-color="#21DD70"/>
<stop offset="1" stop-color="#56D214"/>
</linearGradient>
</defs>
</svg>
